@startuml CU06_Grafo_Flujo

title Grafo de Flujo de Control - CU06: Registrar Ingreso Vehicular con OCR (registerEntry)

state "Inicio" as Inicio
state "1" as N1
state "2" as N2
state "3" as N3
state "4" as N4
state "5" as N5
state "6" as N6
state "7" as N7
state "8" as N8
state "9" as N9
state "10" as N10
state "11" as N11
state "12" as N12
state "13" as N13
state "F" as F

[*] --> Inicio
Inicio --> N1
N1 --> N2
N2 --> F   : V
N2 --> N3  : F
N3 --> N4  : V
N3 --> N5  : F
N4 --> N6
N5 --> N6
N6 --> N7
N7 --> N8
N8 --> N9
N9 --> N10
N10 --> N11
N11 --> N12
N12 --> N13 : V
N12 --> F   : F
N13 --> F
F --> [*]



@enduml
